<?xml version="1.0" encoding="utf-8"?>
<!-- Generator: Adobe Illustrator 19.0.0, SVG Export Plug-In . SVG Version: 6.00 Build 0)  -->
<svg version="1.1" id="图层_1" xmlns="http://www.w3.org/2000/svg" xmlns:xlink="http://www.w3.org/1999/xlink" x="0px" y="0px"
	 viewBox="192.9 310.5 114.1 145.8" style="enable-background:new 192.9 310.5 114.1 145.8;" xml:space="preserve">
<style type="text/css">
	.st0{fill:#FFFFFF;}
	.st1{fill:#050001;}
</style>
<g>
	<path class="st0" d="M284.8,407.2c0,2.2-1.6,4.1-3.6,4.1c-2.1,0-3.8-1.8-3.8-4.1c0-2.2,1.7-4.1,3.7-4.1S284.7,405,284.8,407.2z"/>
	<path class="st0" d="M288.7,363.2c-2.1,0-3.7,2.1-3.7,4.7c0,2.6,1.7,4.7,3.7,4.7s3.7-2,3.7-4.6
		C292.5,365.4,290.7,363.3,288.7,363.2z M288.6,372c-1.6,0-2.9-1.8-2.9-3.9c0-2.2,1.4-4.1,3.1-4c1.6,0,2.9,1.8,2.9,4
		S290.3,372,288.6,372z"/>
	<path class="st0" d="M276,415.3c-2.5,0-5,2.3-5,4.7c0,1.9,1.4,3.3,3.4,3.3c2.6,0,5-2.2,5-4.7C279.4,416.7,278,415.3,276,415.3z
		 M273.7,422.6c-1.4-0.3-2.2-1.6-1.9-3c0.4-2,2.6-3.6,4.6-3.4c1.4,0.1,2.4,1.1,2.3,2.5C278.7,421,275.9,423.1,273.7,422.6z"/>
	<path class="st0" d="M285.2,390.5c-2,0-3.6,1.8-3.6,3.9c0,2.2,1.6,4,3.6,4s3.6-1.8,3.6-4C288.8,392.2,287.2,390.4,285.2,390.5z
		 M285.2,397.6c-1.6,0-2.9-1.5-2.9-3.3s1.3-3.2,2.9-3.2c1.6,0.1,2.9,1.6,2.9,3.3C288.1,396.2,286.8,397.6,285.2,397.6z"/>
	<path class="st0" d="M269.1,426.2c-2.2,0-4.4,1.8-5,3.8c-0.6,1.9,0.5,3.4,2.5,3.4c2.1,0,4.4-1.7,5.1-3.8
		C272.3,427.7,271.1,426.2,269.1,426.2z M270.9,429.5c-0.5,1.7-2.5,3.1-4.3,3.2c-1.6,0-2.3-1-1.8-2.5c0.6-1.7,2.5-3.1,4.2-3.2
		C270.6,426.9,271.4,428,270.9,429.5z"/>
	<path class="st0" d="M287.8,376.8c-1.8,0-3.3,1.8-3.3,4.1c-0.1,2.4,1.4,4.3,3.3,4.3c1.9,0,3.4-1.9,3.4-4.2
		C291.2,378.6,289.7,376.7,287.8,376.8z M287.8,384.4c-1.4,0-2.6-1.6-2.6-3.5c0-1.9,1.2-3.5,2.6-3.5c1.5,0.1,2.7,1.7,2.7,3.6
		C290.5,382.9,289.3,384.4,287.8,384.4z"/>
	<path class="st0" d="M263,436.3c-0.8-0.5-1.7-0.7-3-0.7s-2.8,0.4-3.9,1.6c-0.9,1-0.8,2.1,0.4,2.8c1.9,1.2,5.5,0.7,6.9-1
		C264.2,438,264.1,437,263,436.3z M262,439.2c-1.5,0.9-3.2,1.1-4.8,0.5c-1.2-0.4-1.3-1.3-0.3-2.2s2.2-1.2,3.6-1.2
		c0.2,0,0.7,0.1,1.1,0.2c0.7,0.2,1.4,0.4,1.5,1.2C263.2,438.4,262.6,438.8,262,439.2z"/>
	<path class="st0" d="M253.6,443.3c-1-0.6-2.1-0.8-3.4-0.8c-1.1,0-2.2,0.2-3.3,0.9c-1.1,0.6-1.1,1.5,0,2.2c1.6,1,5.2,1.1,6.8,0
		C254.8,444.9,254.8,444,253.6,443.3z M253.3,445c-1,0.5-2,0.7-2.7,0.6c-1.2,0-2.2-0.1-3.1-0.6c-0.7-0.3-0.8-0.8,0-1.2
		c1.9-0.9,3.9-0.9,5.8,0c0.2,0.1,0.5,0.3,0.6,0.6C253.9,444.8,253.6,444.9,253.3,445z"/>
	<path class="st0" d="M244,447.4c-1.8-1.2-3.8-1.6-5.9-1.3c-0.5,0.1-1.2,0.3-1.3,0.9c-0.1,0.7,0.4,1,0.9,1.3c1.4,1,3,1.3,4.7,1.4
		c0.3,0,0.8,0,1.1-0.2c0.6-0.1,1.2-0.2,1.3-0.9C244.9,448,244.4,447.7,244,447.4z M237.7,447.2c1.8-0.8,5-0.2,6.5,1.4
		C242,449.4,238.9,448.7,237.7,447.2z"/>
	<path class="st0" d="M235.2,339.6c-5.6-1.4-11.2-2.9-16.8-4.4c-2.4-0.6-4.2,0.4-4.8,2.7c-6,22.1-11.9,44.2-17.9,66.3
		c-0.1,0.3-0.2,0.6-0.2,0.7c0,2.2,1.1,3.6,3.3,4.3c5.6,1.8,11.3,3.3,17,4.9c1.2,0.3,2.1-0.1,2.7-1.2c0.2-0.6,0.4-1.2,0.6-1.8
		c4.1-15.2,8.2-30.3,12.3-45.4c2-7.4,4-14.8,6-22.2C238,341.5,237.1,340.1,235.2,339.6z M236.6,343.6c-6.1,22.5-12.2,45.1-18.4,67.6
		c-0.6,2.2-1.2,2.5-3.4,1.9c-5.3-1.5-10.7-2.9-15.9-4.7c-2.4-0.8-3.1-2.2-2.4-4.6c5.9-21.9,11.8-43.7,17.7-65.6c0.5-2,1.9-2.8,4-2.3
		c5.6,1.5,11.2,2.9,16.8,4.4c1.3,0.4,1.8,1.1,1.8,2.6C236.8,343,236.7,343.3,236.6,343.6z"/>
	<path class="st1" d="M290.7,416.7"/>
	<g>
		<path class="st0" d="M306.5,349.4c0.8-2.3,1.2-4.6,1.1-7c-0.1-3.5-2-5.7-5.4-6.4c-0.6-0.1-1.3-0.2-1.9-0.2c-0.7,0-0.9-0.3-1.2-0.9
			c-1.3-2.9-2.9-5.6-4.7-8.2c-3.3-4.6-7.2-8.5-12.4-10.9c-2-0.9-4.1-1.2-6.2-1.8c-3.6-1-7.1-2-10.8-2.7c-8.8-1.6-17.4-1.4-26,1.4
			c-9.1,3-16.3,8.7-22.4,16c-1.5,1.8-2.9,3.7-3.6,6c-5,16.8-9.9,33.7-14.5,50.6c-2,7.6-4.3,15.1-5,23c-0.2,2.3-0.1,4.6,0.8,6.8
			c0.8,2,1.5,4.1,2.2,6.2c3.2,10.5,9.5,18.7,18.4,25c8.7,6.1,18.3,9.7,27.5,10.1c6.7,0,11.6-1,16.3-3.2c7.5-3.5,13.4-9,18.5-15.3
			c4.3-5.2,7.8-11,11.4-16.7c0.3-0.3,0.4-0.8,0.9-0.9c1.6-0.3,2.7-1.5,3.7-2.8c2.2-2.8,3.6-5.9,4.8-9.1c4.2-11.2,7-22.8,7.9-34.7
			c0.4-5.9,0.3-11.9-1.5-17.6c-0.1-0.3-0.3-0.5-0.1-0.7C305.8,353.7,305.8,351.4,306.5,349.4z M232,454
			c-14.4-4.3-25.4-12.7-32.4-26.1c-1.9-3.7-2.7-7.9-4.4-11.7c-2-4.3-1.1-8.6-0.3-12.9c1.8-9.7,4.7-19.2,7.4-28.7
			c3.7-13.1,7.5-26.1,11.3-39.2c0.6-2.2,2-4.1,3.5-5.8c5.3-6.3,11.4-11.5,19.1-14.7c9.4-3.8,19-4.4,28.8-2.5
			c2.6,0.5,5.2,1.1,7.8,1.8c-0.1,0.3-0.5,0-0.8,0c-5.5-0.2-11,0.4-16.1,2.7c-9.7,4.3-15.1,11.7-16.1,22.3c-0.3,3.2-1.5,6.3-2.3,9.4
			c-5.7,21.6-11.4,43.1-17.1,64.7c-0.1,0.5-0.2,1-0.3,1.5c-0.4,2-0.9,3.9-2.1,5.7c-2.1,2.9-1.8,6.1-1.1,9.4
			c2,10.3,7.1,18.3,16.1,23.9c0.1,0.1,0.3,0.1,0.5,0.2C232.8,454.4,232.4,454.1,232,454z M278.1,435.4c-4.8,6.4-10.3,12-17.4,15.9
			c-7.2,4-14.8,5.3-22.9,3.9c-1.1-0.2-2-0.8-2.9-1.3c-9.5-5.1-15-13.1-17.2-23.5c-0.3-1.4-0.5-2.9-0.7-4.4c-0.2-2.1,0.7-3.9,1.8-5.6
			c0.8-1.3,1.3-2.6,1.7-4c3.4-13.8,7.2-27.5,10.8-41.3c1.1-4.1,7.6-28.8,8.1-30.5c0.9-3.1,1.1-6.3,1.8-9.4c1.9-8.5,7.1-14.3,15-17.7
			c5.5-2.4,11.4-2.7,17.4-2.6c9.7,0.2,15.7,6,20.8,13.3c3.4,4.9,5.5,10.4,7.4,16c0.5,1.3,0.1,2.3-0.3,3.5c-0.9-3.1-1.9-6.2-3.1-9.2
			c-2.6-6.2-6.2-11.7-11-16.4c-5.1-4.9-11.2-6.2-18-5.7c-2.1,0.2-4.2,0.4-6.1,1c-5.6,2.1-10.6,5.3-14.6,9.9c-2.8,3.3-4.3,7-4.6,11.2
			c-0.2,3.7-1.4,7.3-2.3,10.9c-5.6,21.3-11.2,42.5-16.8,63.7c-0.3,1.3-0.4,2.7-0.7,4c-0.7,2.9-1.9,5.5-3.6,7.9c-0.8,1-1,2.1-0.8,3.3
			c1.2,8.4,4.7,15.8,11.4,21.2c6.3,5.1,13.5,5.6,21,3.5c8.2-2.3,14.8-7.1,20.6-13.3c7.2-7.7,12.5-16.8,16.8-26.3
			c3.7-8,6.9-16.2,8.4-25c1.4-8.4,2.2-16.8,2.2-25.3c0-1,0.1-2.1,0.9-3c0.4,3.6,0.4,7,0.3,10.4c-0.3,11.9-2.3,23.6-6.5,34.8
			c-1.4,3.8-3.2,7.4-5,11C286.6,423.1,282.6,429.4,278.1,435.4z M300.7,338.9c1.9,0.7,2.6,2.8,1.7,4.9
			C301.8,342.2,301.3,340.6,300.7,338.9z M280.2,340.8c-1.7,1.2-2.4,2.9-1.9,4.8c0.6,2.4,1.8,4.1,4.5,4.8c5.4,1.4,10.8,2.7,16.5,3.4
			c-0.8,0.8-1.6,1-2.5,0.8c-5.5-1.2-11-2.4-16.5-3.6c-1-0.2-1.5-0.8-2-1.5c-1.1-1.6-1.4-3.4-1.2-5.3c0.2-2.4,0.9-4.8,2-7
			c0.6,1,0.8,2.1,1.2,3.2C280.3,340.5,280.4,340.6,280.2,340.8z M280.6,341c0.8,2.8,1.5,5.5,1.8,8.4c-2.1-0.4-2.6-2-3.1-3.6
			C278.6,344,279.2,342.5,280.6,341z M297.8,352.7c-4.7-0.5-9.3-1.6-13.8-2.9c-0.7-0.2-1-0.3-1-1.2c0-1.6-0.5-3.2-0.8-4.7
			c-1.8-7.5-4.8-14.5-10-20.2c-2.2-2.2-4.6-4.1-7.5-5.8c3.4-0.9,6.6-1,9.8-0.9c6.7,0.2,11.4,4,15.5,8.7c5.4,6.2,8.6,13.6,10.6,21.6
			c0.3,1.3,0.9,2.5,0.1,3.9C299.9,352.6,299.4,352.9,297.8,352.7z M274.9,347.9c0.2,1.6,0.7,3,1.5,4.5c2,3.6,2.5,7.6,2.7,11.7
			c0.2,1.2,0.1,2.4,0.1,3.6c-1,19.2-5.6,37.4-16.3,53.6c-5.8,8.8-13.2,15.9-23,20.3c-3.6,1.6-7.4,2.7-11.3,3.4
			c-0.6,0.1-0.9-0.1-1.2-0.5c-3.7-4.8-5.9-10.2-6.8-16.1c-0.2-1.1,0-2.1,0.7-3.1c2.3-3.2,3.6-6.8,4.1-10.7c0.6-4.2,2-8.2,3.1-12.3
			c5.2-19.9,10.5-39.7,15.7-59.6c0.6-2.2,0.5-4.6,0.9-6.9c0.5-2.7,1.5-5,3.3-7.1c3.8-4.6,8.3-8.1,14-10.2c0.8-0.3,1.4-0.3,2.1,0.1
			c5.8,3.2,9.7,8.1,12.7,13.9c0.7,1.4,1,2.4-0.2,3.9C274.4,339.8,274.3,343.8,274.9,347.9z M290.4,417.2c0.1-0.1,0.3-0.5,0.3-0.6
			c0.3-0.5,0.5-0.9,0.7-1.4c0-0.1,0.1-0.2,0.1-0.2c3.9-7.7,6.7-15.8,8.4-24.3c2.1-10.2,2.8-20.6,2-31c0-0.6-0.1-1.2,0.5-1.7
			c0.6,2.3,0.8,4.6,0.9,6.9c0.3,15.2-2,30-7.8,44.1c-0.9,2.1-3.3,6.3-3.4,6.4c-0.3,0.5-0.6,0.9-0.9,1.2
			C291.1,416.6,290.2,417.4,290.4,417.2z M305.3,364.9c0.5,9.8-1.2,19.3-3.5,28.8c-0.1,0.4-0.2,0.9-0.4,1.3c-0.3,1.5-1.8,8.7-5.8,17
			l0-0.1c-1,2.1-2.3,4-4,5.8c2.2-3.3,4.1-6.8,5.4-10.5c0,0,0,0,0,0c0.3-0.8,2.8-6.9,4-12.5c0-0.2,0.1-0.4,0.1-0.6
			c0.6-2.6,1.1-5.2,1.6-7.8c1.2-8,2-15.9,1.3-24c-0.1-1.5-0.4-3.1-0.7-4.6c-0.1-0.6-0.1-1,0.5-1.4
			C304.7,359.1,305.2,362,305.3,364.9z M303.4,355.5c-1.1,1.5-2.1,3.2-3.1,4.8c-0.5,0.9-0.6,1.9-0.6,2.9c-0.1,9.5-0.9,19-2.9,28.3
			c-1.8,8.4-5.1,16.2-8.7,23.9c-3.8,8.1-8.4,15.7-14.3,22.4c-5.7,6.5-12.3,11.6-20.6,14.2c-6.4,2-12.7,2-18.7-1.3
			c-2.3-1.3-4.2-2.9-5.9-4.9c11.9-2,21.4-7.8,29.3-16.6c4.7-5.3,8.5-11.2,11.5-17.6c5.6-11.8,8.9-24.2,10.1-37.2
			c0.5-5.1,0.8-10.2,0-15.3c-0.5-2.9-1.4-5.6-2.9-8.2c-1.1-2-1.1-4.3-1.1-6.5c0-3.6,1.2-6.8,3.1-8.6c1,0.8-0.1,1.1-0.3,1.6
			c-0.9,2.1-1.6,4.3-1.8,6.5c-0.2,2.3,0.1,4.5,1.6,6.4c0.6,0.8,1.3,1.2,2.2,1.5c5.5,1.2,11.1,2.4,16.6,3.6c1.5,0.3,2.6-0.5,3.5-1.8
			c2-3.1,2-6.7,3-10.1c0.6-1.8-0.1-3.2-1.2-4.4c-0.3-0.3-0.7-0.7-1-0.8c-0.9-0.1-1.1-0.8-1.2-1.5c3.9-0.5,6.7,1.9,6.9,5.8
			c0.1,2.3-0.4,4.6-1,6.8c-0.3,1.2-0.7,2.4-1,3.7C304.7,354.1,304,354.7,303.4,355.5z"/>
	</g>
	<path class="st0" d="M240.2,344.9l-3.3,12.3l2,0.6l3.3-12.3L240.2,344.9z M238.6,357.3l-1.3-0.4l3.1-11.5l1.3,0.4L238.6,357.3z"/>
</g>
</svg>
