<?xml version="1.0" encoding="utf-8"?>
<!-- Generator: Adobe Illustrator 19.0.0, SVG Export Plug-In . SVG Version: 6.00 Build 0)  -->
<svg version="1.1" id="图层_1" xmlns="http://www.w3.org/2000/svg" xmlns:xlink="http://www.w3.org/1999/xlink" x="0px" y="0px"
	 viewBox="-214 363.2 165.1 115.7" style="enable-background:new -214 363.2 165.1 115.7;" xml:space="preserve">
<style type="text/css">
	.st0{fill:#FFFFFF;}
	.st1{font-family:'MicrosoftYaHei';}
	.st2{font-size:2.8346px;}
</style>
<g>
	<path class="st0" d="M-53.6,363.3c-25.9,0-51.7,0-77.6,0c-26-0.1-52-0.1-78,0c-3.1,0-4.6,1.4-4.6,4.5c0,35.5,0,70.9,0,106.4
		c0,3.1,1.5,4.5,4.6,4.5c51.9,0,103.8,0,155.7,0c3.2,0,4.6-1.4,4.6-4.6c0-35.4,0-70.8,0-106.2C-48.9,364.7-50.3,363.3-53.6,363.3z
		 M-49.9,473.9c0,2.9-0.9,3.8-3.8,3.8c-25.9,0-51.8,0-77.7,0c-25.8,0-51.7,0-77.5,0c-2.9,0-3.9-0.9-3.9-3.9c0-35.3,0-70.6,0-105.8
		c0-2.8,1-3.8,3.7-3.8c51.8,0,103.7,0,155.5,0c2.7,0,3.7,1,3.7,3.7C-49.9,403.2-49.9,438.5-49.9,473.9z"/>
	<path class="st0" d="M-61.1,374.6c-46.8,0-93.7,0-140.5,0c-2.3,0-2.8,0.5-2.8,2.8c0,25.7,0,51.3,0,77c0,2.1,0.6,2.7,2.8,2.7
		c23.4,0,46.9,0,70.3,0s46.9,0,70.2,0c2.2,0,2.8-0.5,2.8-2.7c0-25.7,0-51.3,0-77C-58.3,375.1-58.8,374.6-61.1,374.6z M-59.2,454
		c0,2-0.1,2-2,2c-46.7,0-93.4,0-140.1,0c-2,0-2-0.1-2-2c0-25.5,0-51,0-76.5c0-2,0.1-2,2-2c23.3,0,46.6,0,70,0s46.7,0,70.1,0
		c2,0,2,0.1,2,2C-59.2,403-59.2,428.5-59.2,454z"/>
	<path class="st0" d="M-81,463.3c-2.6,0-5.3,0-7.9,0c-2.7,0-5.4,0.1-8.2,0c-1,0-1.5,0.4-1.5,1.5c0,2.8,0,5.7,0,8.6
		c0,1.2,0.4,1.5,1.5,1.5c5.4,0,10.8,0,16.2,0c1.1,0,1.5-0.5,1.5-1.6c0-2.8,0-5.6,0-8.4C-79.4,463.5-79.6,463.3-81,463.3z M-79.9,473
		c0,0.7-0.1,1-1,1c-5.3,0-10.7,0-16,0c-0.7,0-1-0.1-1-0.9c0.1-2.7,0.1-5.4,0-8.2c0-0.8,0.3-0.9,1-0.9c2.7,0.1,5.4,0.1,8.2,0.1
		c2.6,0,5.2,0,7.7,0c0.8,0,1.2,0.1,1.2,1C-80,467.7-79.9,470.3-79.9,473z"/>
	<g>
		<g>
			<path class="st0" d="M-95.4,471.5c-0.9-0.6-1.4-1.5-1.4-2.4s0.5-1.8,1.4-2.4l0.1-0.1c0,0,0-0.1-0.1-0.1c-0.1-0.1-0.2-0.1-0.3,0
				c-1,0.7-1.5,1.7-1.5,2.7s0.5,2,1.5,2.7c0.1,0.1,0.2,0.1,0.3,0C-95.3,471.6-95.3,471.5-95.4,471.5L-95.4,471.5z"/>
			<path class="st0" d="M-94.5,467.3c0.1,0,0.1-0.1,0.1-0.1v-0.1c-0.1-0.1-0.2-0.1-0.3,0c-0.7,0.5-1.2,1.2-1.2,2s0.4,1.5,1.2,2
				c0.1,0.1,0.2,0,0.3,0c0.1-0.1,0.1-0.2,0-0.2c-0.6-0.4-1-1.1-1-1.7C-95.5,468.3-95.2,467.7-94.5,467.3L-94.5,467.3z"/>
			<path class="st0" d="M-93.7,468c0.1-0.1,0.1-0.2,0.1-0.2c-0.1-0.1-0.2-0.1-0.3,0c-0.5,0.3-0.8,0.8-0.8,1.3s0.3,1,0.8,1.3
				c0.1,0.1,0.2,0,0.3,0v-0.1c0-0.1,0-0.1-0.1-0.1c-0.4-0.2-0.7-0.6-0.7-1C-94.3,468.6-94.1,468.2-93.7,468L-93.7,468z"/>
		</g>
		  <!-- <text transform="matrix(1 0 0 1 -93.25 469.8242)" class="st0 st1 st2">感应区</text>-->
		<g>
			<path class="st0" d="M-82.6,471.5c0.9-0.6,1.4-1.5,1.4-2.4s-0.5-1.8-1.4-2.4l-0.1-0.1c0,0,0-0.1,0.1-0.1c0.1-0.1,0.2-0.1,0.3,0
				c1,0.7,1.5,1.7,1.5,2.7s-0.5,2-1.5,2.7c-0.1,0.1-0.2,0.1-0.3,0C-82.7,471.6-82.7,471.5-82.6,471.5L-82.6,471.5z"/>
			<path class="st0" d="M-83.5,467.3c-0.1,0-0.1-0.1-0.1-0.1v-0.1c0.1-0.1,0.2-0.1,0.3,0c0.7,0.5,1.2,1.2,1.2,2s-0.4,1.5-1.2,2
				c-0.1,0.1-0.2,0-0.3,0c-0.1-0.1-0.1-0.2,0-0.2c0.6-0.4,1-1.1,1-1.7C-82.5,468.3-82.8,467.7-83.5,467.3L-83.5,467.3z"/>
			<path class="st0" d="M-84.3,468c-0.1-0.1-0.1-0.2-0.1-0.2c0.1-0.1,0.2-0.1,0.3,0c0.5,0.3,0.8,0.8,0.8,1.3s-0.3,1-0.8,1.3
				c-0.1,0.1-0.2,0-0.3,0v-0.1c0-0.1,0-0.1,0.1-0.1c0.4-0.2,0.7-0.6,0.7-1C-83.6,468.6-83.9,468.2-84.3,468L-84.3,468z"/>
		</g>
	</g>
</g>
</svg>
