<?xml version="1.0" encoding="utf-8"?>
<!-- Generator: Adobe Illustrator 19.0.0, SVG Export Plug-In . SVG Version: 6.00 Build 0)  -->
<svg version="1.1" id="图层_1" xmlns="http://www.w3.org/2000/svg" xmlns:xlink="http://www.w3.org/1999/xlink" x="0px" y="0px"
	 viewBox="266.2 345.2 147.8 111.7" style="enable-background:new 266.2 345.2 147.8 111.7;" xml:space="preserve">
<style type="text/css">
	.st0{fill:#FFFFFF;}
</style>
<path class="st0" d="M317,442.4c0.3,0,0.5,0,0.8,0c0.3,0.4,0.4,0.9,0.3,1.4c-0.3,3.2-0.4,6.5-1.2,9.6c-0.2,0.8,0,1.2,0.8,1.1
	c0.3,0,0.6,0,1,0c9.4,0,18.8,0,28.2,0c0.4,0,0.8,0,1.2,0c0.6,0,0.8-0.3,0.6-0.9c-0.7-2.9-1-5.9-1.2-8.9c-0.1-0.8-0.3-1.6,0.2-2.3
	c0.3,0,0.5,0,0.8,0c0.1,3.6,0.4,7.2,1.2,10.7c0.3,1.2,0.8,1.9,2.1,2.2c1.4,0.4,2.9,0.5,4.3,0.8c-0.1,0.8-0.7,0.7-1.2,0.7
	c-8.5,0-17,0-25.5,0c-6,0-12,0-18,0c-0.5,0-1.1,0.1-1.4-0.6c1.6-0.4,3.3-0.7,4.9-1c0.4-0.1,0.5-0.2,0.6-0.6
	C316.6,450.6,316.7,446.5,317,442.4z"/>
<path class="st0" d="M386.9,424.9c-0.5,0-1,0-1.4,0c-36.8,0-73.5,0-110.3,0c-1.1,0-1.3-0.3-1.3-1.3c0-23.8,0-47.7,0-71.5
	c0-1.1,0.3-1.3,1.3-1.3c38.6,0,77.3,0,115.9,0c1.1,0,1.4,0.2,1.4,1.3c0,15.3,0,30.6,0,45.8c0,0.4,0,0.9,0,1.3c-0.3,0-0.5,0-0.8,0
	c0-0.2,0-0.5,0-0.7c0-15.3,0-30.6,0-46c0-0.7,0-1.1-1-1.1c-38.4,0-76.8,0-115.2,0c-0.8,0-1,0.2-1,1c0,23.6,0,47.2,0,70.8
	c0,0.8,0.2,1,1,1c37,0,74,0,111,0c0.1,0,0.2,0,0.4,0C386.9,424.4,386.9,424.7,386.9,424.9z"/>
<path class="st0" d="M414,403.5c-0.1-2.6-1.7-4.3-4.3-4.3c-2.5,0-5,0-7.4,0c-1.7,0-1.7,0-1.7-1.7c0-16.1,0-32.2,0-48.2
	c0-3-0.9-3.9-3.8-3.9c-42.2,0-84.4,0-126.6,0c-2.8,0-3.7,1-3.7,3.7c0,26.5,0,53,0,79.5c0,0.4,0,0.8,0,1.2c0.3,0.2,0.5,0.2,0.7,0
	c0,0,0,0,0,0c0-0.4,0-0.8,0-1.2c0-26.5,0-53,0-79.5c0-2.4,0.6-3,3.1-3c42.2,0,84.4,0,126.7,0c2.3,0,3,0.6,3,3c0,16.3,0,32.5,0,48.8
	c0,1-0.6,1.3-1.2,1.3c-2.1,0-3.2,0-6.2,0c-4.3,0-5.4,1.3-5.5,4.1c-0.1,3.3-0.2,21.6-0.1,21.7c0,1.7,0,3.3,0,5c-0.1,0,0,19.1,0,22.4
	c0,2.9,1.6,4.5,4.5,4.5c5.9,0,11.8,0,17.8,0c3.3,0,4.8-1.5,4.8-4.8c0-12.9,0-25.8,0-38.6C414,412.1,414,405.6,414,403.5z
	 M413.3,452.1c0,2.7-1.3,4-4,4c-6,0-11.9,0-17.9,0c-2.5,0-3.8-1.3-3.8-3.8c0-16.2,0-32.3,0-48.5c0-2.5,1.3-3.8,3.8-3.8
	c6,0,12,0,18,0c2.5,0,3.8,1.3,3.8,3.8c0,8.1,0,16.2,0,24.2C413.3,436.1,413.3,444.1,413.3,452.1z"/>
<path class="st0" d="M333.5,348.6c-0.5-0.1-0.9-0.4-0.8-0.9c0-0.5,0.3-0.8,0.9-0.8c0.5,0,0.8,0.3,0.8,0.9
	C334.3,348.3,333.9,348.5,333.5,348.6z"/>
<path class="st0" d="M400.3,403.8c0.6,0,1.2,0,1.8,0c0.3,0,0.6,0.1,0.6,0.5c0,0.3-0.2,0.5-0.5,0.5c-1.3,0-2.6,0-3.8,0
	c-0.3,0-0.6-0.1-0.6-0.5c0-0.4,0.3-0.5,0.7-0.5C399,403.8,399.6,403.8,400.3,403.8z"/>
<path class="st0" d="M400.8,402c0,0.3-0.2,0.5-0.4,0.5c-0.3,0-0.5-0.1-0.5-0.4c0-0.3,0.2-0.5,0.5-0.5
	C400.6,401.6,400.7,401.9,400.8,402z"/>
<path class="st0" d="M412.1,427.9c0-6.6,0-13.1,0-19.7c0-0.9-0.2-1.1-1.1-1.1c-7,0-13.9,0-20.9,0c-0.9,0-1.1,0.2-1.1,1.1
	c0,13,0,26.1,0,39.1c0,0.9,0.2,1.1,1.1,1.1c7,0,13.9,0,20.9,0c0.9,0,1.1-0.2,1.1-1.1C412,440.9,412.1,434.4,412.1,427.9z
	 M410.3,447.7c-6.5,0-13,0-19.4,0c-0.9,0-1.1-0.2-1.1-1.1c0-12.6,0-25.1,0-37.7c0-0.9,0.2-1.1,1.1-1.1c6.5,0,13,0,19.4,0
	c0.9,0,1.1,0.2,1.1,1.1c0,6.3,0,12.6,0,19c0,6.2,0,12.5,0,18.7C411.4,447.5,411.2,447.7,410.3,447.7z"/>
<path class="st0" d="M400.5,449.9c-1.4,0-2.5,1.1-2.6,2.6c0,1.4,1.1,2.7,2.5,2.7c1.4,0,2.5-1.1,2.6-2.6
	C403,451.1,401.9,449.9,400.5,449.9z M400.4,454.4c-1,0-1.8-0.8-1.8-1.9c0-1.1,0.8-2,1.8-2c1,0,1.8,0.9,1.8,1.9
	C402.2,453.5,401.4,454.4,400.4,454.4z"/>
<path class="st0" d="M266.4,429.3v10.1c0,2.2,1.6,3.9,3.5,3.9h117.3v-14H266.4z M386.9,442.3H270.4c-1.7,0-3-1.5-3-3.4v-8.6h119.5
	V442.3z"/>
</svg>
